<svg xmlns="http://www.w3.org/2000/svg" viewBox="0 0 32 32">
  <rect width="32" height="32" rx="8" fill="#111"/>
  <path d="M17.5 7v12.2a5 5 0 1 1-3-4.58V7h8.5c.55 2.72 2.3 4.4 5 4.82v3.25c-2.45-.18-4.42-1.04-5.98-2.58v6.71a5 5 0 1 1-3-4.58V9.95" fill="none" stroke="#25f4ee" stroke-width="3.4" stroke-linecap="round" stroke-linejoin="round" transform="translate(-1.2 0)"/>
  <path d="M17.5 7v12.2a5 5 0 1 1-3-4.58V7h8.5c.55 2.72 2.3 4.4 5 4.82v3.25c-2.45-.18-4.42-1.04-5.98-2.58" fill="none" stroke="#fe2c55" stroke-width="3.4" stroke-linecap="round" stroke-linejoin="round" transform="translate(1.2 0)"/>
  <path d="M17.5 7v12.2a5 5 0 1 1-3-4.58V7h8.5c.55 2.72 2.3 4.4 5 4.82v3.25c-2.45-.18-4.42-1.04-5.98-2.58" fill="none" stroke="#fff" stroke-width="2.2" stroke-linecap="round" stroke-linejoin="round"/>
</svg>
